<?xml version="1.0" encoding="utf-8"?>
<!-- Generator: Adobe Illustrator 26.0.0, SVG Export Plug-In . SVG Version: 6.00 Build 0)  -->
<svg version="1.1" xmlns="http://www.w3.org/2000/svg" xmlns:xlink="http://www.w3.org/1999/xlink" x="0px" y="0px"
	 viewBox="0 0 3710 3710" style="enable-background:new 0 0 3710 3710;" xml:space="preserve">
<style type="text/css">
	.st0{fill:#F4F7FA;}
	.st1{fill:#97A6B7;}
	.st2{fill:#D8DEE8;}
	.st3{fill:url(#SVGID_1_);}
	.st4{fill:url(#SVGID_00000155838480109358464920000017269301550804212369_);}
	.st5{opacity:0.3;fill:#D8DEE8;}
	.st6{fill:url(#SVGID_00000056420577088687412240000000523486469424044695_);}
	.st7{opacity:0.6;fill:#FFFFFF;}
	.st8{opacity:0.36;fill:#FFFFFF;}
	.st9{fill:url(#SVGID_00000009567268807284851500000009532378215321028538_);}
	.st10{opacity:0.5;fill:url(#SVGID_00000180341032525181180440000000793549992153344896_);}
	.st11{opacity:0.5;fill:url(#SVGID_00000173862429658177515940000004510761522549600948_);}
	.st12{opacity:0.5;fill:url(#SVGID_00000029030980499341780960000002707581229183566736_);}
	.st13{fill:url(#SVGID_00000142140855750342136590000004479497917712492197_);}
	.st14{opacity:0.5;fill:url(#SVGID_00000045593407464797981810000001174100450123986102_);}
	.st15{opacity:0.5;fill:url(#SVGID_00000026881153148585959580000017487446533611824557_);}
	.st16{opacity:0.5;fill:url(#SVGID_00000127744192107427029520000000615936264714126771_);}
	.st17{opacity:0.5;fill:url(#SVGID_00000165916515583788007180000007522970918518635421_);}
	.st18{fill:url(#SVGID_00000126315281519085366670000000330376401947399842_);}
	.st19{opacity:0.5;fill:url(#SVGID_00000005978209637692607970000014667767701418736536_);}
	.st20{opacity:0.5;fill:url(#SVGID_00000082335540141454567190000014488288968471851430_);}
	.st21{opacity:0.5;fill:url(#SVGID_00000024707002026948171910000006357833084714939520_);}
	.st22{opacity:0.5;fill:url(#SVGID_00000165231998643234935580000017501268400203861637_);}
	.st23{opacity:0.5;fill:url(#SVGID_00000000911946051508547540000003637919933351139968_);}
	.st24{fill:url(#SVGID_00000010273934734679298180000007190475329696411312_);}
	.st25{opacity:0.5;fill:url(#SVGID_00000152246260551267002820000011892975499438760845_);}
	.st26{opacity:0.5;fill:url(#SVGID_00000110454924968100126100000010247114521618873258_);}
	.st27{opacity:0.5;fill:url(#SVGID_00000130628732816297176070000004451618840641497752_);}
	.st28{fill:url(#SVGID_00000031918599602980392800000006602240372516469176_);}
	.st29{fill:#FFFFFF;}
	.st30{fill:url(#SVGID_00000175299579111244668720000000270963200192030098_);}
	.st31{fill:url(#SVGID_00000173149806185611715410000004697152979385135494_);}
	.st32{fill:#898989;}
	.st33{fill:url(#SVGID_00000044859591544225642010000015510891009237083790_);}
	.st34{fill:url(#SVGID_00000164496228178122406940000000656555124382296767_);}
	.st35{fill:url(#SVGID_00000136372264167984214410000004246934112513856647_);}
	.st36{fill:url(#SVGID_00000098187909770507663410000001635951057099656836_);}
	.st37{fill:url(#SVGID_00000178885959973346212560000018281149820957318295_);}
	.st38{opacity:0.4;fill:url(#SVGID_00000051349608350208178540000012751031918811180169_);}
	.st39{fill:url(#SVGID_00000128485252682217660070000003964492686244612797_);}
	.st40{opacity:0.75;fill:#F4F7FA;}
	.st41{fill:url(#SVGID_00000026158548551278912840000008895151022532561814_);}
	.st42{fill:url(#SVGID_00000047759407720814868370000003444874765919756446_);}
	.st43{fill:url(#SVGID_00000080196230199386887120000014318819137882692743_);}
	.st44{fill:url(#SVGID_00000061439908069254985010000010781349607513248147_);}
	.st45{fill:url(#SVGID_00000066476584403253550950000014265874899283007652_);}
	.st46{fill:url(#SVGID_00000010304475220148404350000006742460831481052822_);}
	.st47{fill:url(#SVGID_00000132772875713818982980000016068329601403352211_);}
	.st48{fill:url(#SVGID_00000023993073667430749270000003074674465501989281_);}
	.st49{fill:url(#SVGID_00000016069253790339546270000009324784553291917484_);}
	.st50{opacity:0.3;fill:url(#SVGID_00000078723370629343908800000012630976547099235476_);}
	.st51{fill:url(#SVGID_00000096756546560213088720000007905640514069564060_);}
	.st52{fill:url(#SVGID_00000138558325230596262350000015035550703890502288_);}
	.st53{fill:url(#SVGID_00000127004046875618303340000012596295636153703080_);}
	.st54{fill:url(#SVGID_00000140699186306628645800000014889230698935953067_);}
</style>
<g id="Background">
</g>
<g id="Illustration">
	<g>
		<path class="st0" d="M2570.68,616.92c95.39,133.54-12.5,352.81,128,452.52c136.77,97.06,301.82-66.13,430.64,17.3
			c191.09,123.77,162.49,699.61-111.2,1060.08c-82.31,108.41-151.58,150.98-181.18,272.91c-63.56,261.82,171.1,414.71,128.12,544.32
			c-96.79,291.85-1629.79,552.02-2255.12-315.44c-292.06-405.14-341.31-994.08-88.92-1444.44
			C1077.09,390.4,2356.64,317.28,2570.68,616.92z"/>
		<g>
			<g>
				<g>
					<path class="st1" d="M1794.01,1123.97l-63.86-11.88c3.52-43,0.98-85.38-6.97-126.24l59.86-21.17
						c16.36-5.79,25.03-24.13,19.39-41.02l-15.03-45.05c-5.67-16.99-23.6-26.21-40.1-20.55l-58.99,20.25
						c-18.28-39.42-42.01-76.33-70.48-109.59l40.55-46.91c11.63-13.46,10.15-34.33-3.34-46.66l-36.05-32.98
						c-13.63-12.47-34.27-11.66-46.09,1.86l-40.52,46.36c-36.03-25.8-76.21-47.08-119.88-62.65l11.61-61.82
						c3.42-18.24-8.67-36.52-27.08-40.85l-49.26-11.59c-18.64-4.39-36.61,6.99-40.07,25.43l-11.73,62.5
						c-47.12-4.84-93.8-2.81-138.87,5.43l-22.56-62.73c-6.63-18.43-27.07-28.93-45.69-23.41l-49.81,14.77
						c-18.84,5.59-28.63,25.22-21.83,43.8l23.51,64.26c-42.6,19.53-82.2,45.05-117.46,75.79l-55.55-46.83
						c-15.75-13.28-39.33-12.36-52.65,2.12l-35.54,38.63c-13.41,14.58-11.31,37.15,4.66,50.36l57.63,47.67
						c-25.54,37.72-45.85,79.49-59.74,124.53l-77.17-14.35c-20.77-3.86-40.61,8.7-44.25,28.08l-9.67,51.53
						c-3.64,19.38,10.34,38.05,31.15,41.68l79.38,13.88c-1.75,46.21,3.42,91.49,14.73,134.74l-77.35,26.55
						c-19.72,6.77-29.88,27.13-22.65,45.43l19.18,48.51c7.19,18.18,28.89,27.27,48.43,20.36l78.4-27.73
						c21.98,38.72,49.32,74.24,81.19,105.52l-53.74,61.49c-13.1,14.99-11.08,36.75,4.49,48.55l41.18,31.19
						c15.4,11.66,38.31,8.98,51.2-5.93l53.46-61.85c37.28,21.57,77.84,38.44,120.99,49.73l-14.53,77.41
						c-3.46,18.44,9.19,35.34,28.21,37.75l50.24,6.36c18.77,2.38,36.72-10.49,40.14-28.73l14.38-76.57
						c43.8,0.71,86.55-4.41,127.37-14.62l25.66,70.13c6.13,16.76,25.13,24.72,42.39,17.82l45.67-18.24
						c17.08-6.82,26.05-25.8,20.06-42.44l-24.76-68.87c37.43-19.67,72.05-44.06,102.93-72.43l54.42,45.01
						c13.36,11.05,33.47,8.7,44.93-5.2l30.4-36.85c11.4-13.82,9.96-33.99-3.22-45.1l-52.49-44.25
						c22.91-34.32,41.49-71.95,54.88-112.27l65.71,11.49c16.94,2.96,33.28-8.75,36.54-26.15l8.69-46.28
						C1821.93,1143.76,1810.92,1127.11,1794.01,1123.97z M1205.64,1407.9c-190.22-28.46-320.79-204.75-285.47-392.84
						c35.31-188.09,221.3-307.04,409.35-266.98c181.65,38.7,297.56,212.34,264.39,389.02
						C1560.73,1313.77,1389.4,1435.39,1205.64,1407.9z"/>
					<polygon class="st1" points="1151.63,529.96 1106.46,519.86 1083.12,557.68 					"/>
					<polygon class="st1" points="1598.97,633.42 1651.31,643.79 1644.05,682.47 					"/>
					<polygon class="st1" points="1763.77,857.5 1815.63,869.42 1797.07,896.24 					"/>
					<polygon class="st1" points="1798.43,1125.36 1850.43,1139.45 1828.37,1161.82 					"/>
					<polygon class="st1" points="1642.62,1471.07 1692.47,1488 1706.59,1447.37 					"/>
					<polygon class="st1" points="1411.21,1622.95 1455.63,1639.95 1465.67,1606.66 					"/>
					<polygon class="st1" points="1165.94,1661.31 1126.03,1646.24 1171.48,1600.12 					"/>
					<polygon class="st1" points="950.59,1574.89 904.37,1555.93 949.92,1517.95 					"/>
					<polygon class="st1" points="842.09,662.84 891.97,673.83 865.24,706.69 					"/>
					<polygon class="st1" points="668.38,1037.65 713.09,1053.08 716.5,1014.77 					"/>
					<polygon class="st1" points="715.45,1331.63 759.02,1347.39 768.27,1318.28 					"/>
				</g>
				<path class="st2" d="M1844.81,1137.8l-64.39-11.97c3.55-43.35,0.99-86.08-7.03-127.27l60.35-21.34
					c16.49-5.83,25.23-24.33,19.55-41.36l-15.15-45.42c-5.71-17.13-23.8-26.42-40.43-20.72l-59.47,20.41
					c-18.44-39.75-42.36-76.95-71.07-110.48l40.88-47.29c11.73-13.57,10.23-34.61-3.36-47.04l-36.35-33.25
					c-13.74-12.57-34.56-11.76-46.47,1.87l-40.85,46.74c-36.33-26.02-76.84-47.47-120.87-63.16l11.7-62.32
					c3.45-18.39-8.75-36.82-27.3-41.19l-49.67-11.69c-18.8-4.42-36.91,7.05-40.4,25.63l-11.83,63.01
					c-47.51-4.88-94.57-2.84-140.02,5.47l-22.75-63.24c-6.68-18.58-27.29-29.17-46.07-23.6l-50.22,14.89
					c-18.99,5.63-28.86,25.42-22.01,44.15l23.71,64.78c-42.95,19.69-82.88,45.41-118.43,76.41l-56.02-47.22
					c-15.88-13.39-39.66-12.46-53.09,2.14l-35.83,38.95c-13.52,14.69-11.4,37.45,4.7,50.77l58.11,48.06
					c-25.75,38.03-46.23,80.13-60.23,125.55l-77.81-14.47c-20.94-3.89-40.95,8.77-44.62,28.31l-9.75,51.95
					c-3.67,19.54,10.43,38.36,31.41,42.03l80.04,14c-1.77,46.59,3.45,92.23,14.85,135.84l-77.99,26.76
					c-19.89,6.82-30.13,27.35-22.83,45.81l19.34,48.9c7.25,18.33,29.13,27.5,48.83,20.53l79.05-27.95
					c22.16,39.03,49.73,74.85,81.87,106.38l-54.19,61.99c-13.21,15.11-11.17,37.05,4.53,48.94l41.52,31.44
					c15.53,11.76,38.63,9.05,51.62-5.98l53.9-62.36c37.58,21.75,78.49,38.76,122,50.14l-14.65,78.05
					c-3.49,18.59,9.27,35.63,28.44,38.05l50.66,6.41c18.93,2.4,37.02-10.57,40.47-28.96l14.49-77.2
					c44.17,0.72,87.27-4.44,128.42-14.74l25.88,70.71c6.18,16.89,25.34,24.92,42.74,17.97l46.05-18.38
					c17.22-6.88,26.26-26.01,20.23-42.79l-24.97-69.43c37.74-19.83,72.64-44.42,103.78-73.02l54.87,45.37
					c13.47,11.14,33.75,8.77,45.31-5.25l30.65-37.15c11.49-13.93,10.04-34.26-3.25-45.47l-52.92-44.61
					c23.1-34.6,41.84-72.54,55.33-113.18l66.26,11.59c17.08,2.99,33.55-8.82,36.85-26.36l8.76-46.66
					C1872.96,1157.75,1861.86,1140.96,1844.81,1137.8z M1251.57,1424.03c-191.8-28.69-323.45-206.42-287.85-396.05
					c35.6-189.62,223.13-309.54,412.73-269.15c183.16,39.02,300.03,214.08,266.59,392.2
					C1609.61,1329.14,1436.86,1451.74,1251.57,1424.03z"/>
			</g>
		</g>
		<g>
			<g>
				<path class="st1" d="M2243.8,2899.75c-37.33-12.38-65.23-44.06-73.1-83l-54.33-268.9l-464.76,16.5l-57.2,280.13
					c-8.01,39.23,24.06,78.59,60.99,93.04l194.45,76.08c36.17,14.15,75.04,19.79,113.68,16.48l410.93-35.16
					c12.01-1.03,21.65-10.47,23.05-22.58c1.4-12.11,9.81-25.72-1.64-29.52L2243.8,2899.75z"/>
				<linearGradient id="SVGID_1_" gradientUnits="userSpaceOnUse" x1="2008.2012" y1="2977.574" x2="1982.5548" y2="2238.946">
					<stop  offset="0" style="stop-color:#D8DEE8"/>
					<stop  offset="0.9964" style="stop-color:#97A6B7"/>
				</linearGradient>
				<path class="st3" d="M2248.4,2883.4c-37.29-12.23-65.16-43.51-73.02-81.96l-54.28-265.52l-453.43,16.31l-57.14,276.61
					c-8,38.74,13.17,77.59,50.07,91.85l194.25,75.12c36.13,13.97,74.96,19.54,113.56,16.27l410.52-34.71
					c12-1.01,21.63-10.34,23.02-22.3c1.4-11.96-5.82-23.25-17.27-27.01L2248.4,2883.4z"/>
			</g>
			<g>
				<g>
					<path class="st1" d="M701.93,2726.58c-50.4,3-91.63-29.69-91.63-72.9V1096.31c0-43.21,41.23-76.58,91.63-74.39l2340.91,162.06
						c37,1.6,56.86-28.27,56.86,8.48v1324.53c0,36.75-29.96,68.43-66.96,70.64L701.93,2726.58z"/>
					
						<linearGradient id="SVGID_00000042731280790897071510000012970217244518598065_" gradientUnits="userSpaceOnUse" x1="1556.4513" y1="2454.0754" x2="561.356" y2="4469.9155">
						<stop  offset="0" style="stop-color:#D8DEE8"/>
						<stop  offset="0.9964" style="stop-color:#97A6B7"/>
					</linearGradient>
					<path style="fill:url(#SVGID_00000042731280790897071510000012970217244518598065_);" d="M722.88,2726.58
						c-50.4,3-91.63-29.69-91.63-72.9V1096.31c0-43.21,41.23-76.58,91.63-74.39l2330.8,100.99c37,1.6,66.96,32.8,66.96,69.55
						v1324.53c0,36.75-29.96,68.43-66.96,70.64L722.88,2726.58z"/>
					<path class="st5" d="M3050.77,1124.05l-2330.8-95.89c-24.03,28.93-45.94,46.73-45.94,69.8v1211.22v342.14
						c0,23.07,21.91,40.52,48.85,38.97l2330.8-133.84c19.83-1.14,35.87-18.04,35.87-37.76v-302.78V1191.26
						C3089.55,1171.54,3073.52,1154.9,3050.77,1124.05z"/>
				</g>
				<g>
					
						<linearGradient id="SVGID_00000066478373302083357240000011753765370212473991_" gradientUnits="userSpaceOnUse" x1="1295.194" y1="776.3617" x2="2396.8137" y2="2796.8667">
						<stop  offset="0" style="stop-color:#444B8C"/>
						<stop  offset="0.9964" style="stop-color:#26264F"/>
					</linearGradient>
					<path style="fill:url(#SVGID_00000066478373302083357240000011753765370212473991_);" d="M3036.36,2444.38L748.14,2557.33
						c-24.02,1.19-43.54-14.69-43.54-35.46v-1403.5c0-20.77,19.52-36.89,43.54-36l2288.22,84.94c17.96,0.67,32.48,15.72,32.48,33.62
						v1209.44C3068.85,2428.26,3054.32,2443.49,3036.36,2444.38z"/>
					<polygon class="st7" points="1318.97,1230.59 796.39,1215.22 796.39,1165.4 1318.97,1182.3 					"/>
					<polygon class="st8" points="1565.07,1224.05 1444.35,1220.39 1444.35,1186.35 1565.07,1190.26 					"/>
					<polygon class="st8" points="1565.07,1270.99 1444.35,1267.69 1444.35,1233.65 1565.07,1237.2 					"/>
					
						<linearGradient id="SVGID_00000097462737480893600070000015200462230851341451_" gradientUnits="userSpaceOnUse" x1="1882.6549" y1="960.9717" x2="2080.4026" y2="2166.2898">
						<stop  offset="3.597120e-03" style="stop-color:#E38DDD"/>
						<stop  offset="1" style="stop-color:#9571F6"/>
					</linearGradient>
					<polygon style="fill:url(#SVGID_00000097462737480893600070000015200462230851341451_);" points="2166.67,1287.46 
						1698.33,1274.64 1698.33,1241.13 2166.67,1254.92 					"/>
					
						<linearGradient id="SVGID_00000181800136587856236000000007546720033310127005_" gradientUnits="userSpaceOnUse" x1="1779.7839" y1="1312.1995" x2="2243.4673" y2="1312.1995">
						<stop  offset="0" style="stop-color:#FF9085"/>
						<stop  offset="1" style="stop-color:#FB6FBB"/>
					</linearGradient>
					<polygon style="opacity:0.5;fill:url(#SVGID_00000181800136587856236000000007546720033310127005_);" points="2243.47,1334.55 
						1779.78,1323.2 1779.78,1289.85 2243.47,1302.17 					"/>
					
						<linearGradient id="SVGID_00000093135641244737551870000017122474222346208143_" gradientUnits="userSpaceOnUse" x1="1779.7839" y1="1357.855" x2="2243.4673" y2="1357.855">
						<stop  offset="0" style="stop-color:#FF9085"/>
						<stop  offset="1" style="stop-color:#FB6FBB"/>
					</linearGradient>
					<polygon style="opacity:0.5;fill:url(#SVGID_00000093135641244737551870000017122474222346208143_);" points="2243.47,1379.53 
						1779.78,1369.52 1779.78,1336.18 2243.47,1347.15 					"/>
					<polygon class="st7" points="2243.47,1424.52 1779.78,1415.85 1779.78,1382.5 2243.47,1392.14 					"/>
					<polygon class="st8" points="1565.07,1317.94 1444.35,1314.98 1444.35,1280.94 1565.07,1284.15 					"/>
					<polygon class="st8" points="1565.07,1364.89 1444.35,1362.28 1444.35,1328.24 1565.07,1331.1 					"/>
					<polygon class="st8" points="1565.07,1411.83 1444.35,1409.57 1444.35,1375.53 1565.07,1378.04 					"/>
					<polygon class="st8" points="1565.07,1458.78 1444.35,1456.87 1444.35,1422.83 1565.07,1424.99 					"/>
					<polygon class="st7" points="1888.56,1463.89 1591.41,1459.2 1591.41,1425.46 1888.56,1430.78 					"/>
					<polygon class="st8" points="1565.07,1505.72 1444.35,1504.17 1444.35,1470.13 1565.07,1471.94 					"/>
					<polygon class="st8" points="1565.07,1552.67 1444.35,1551.46 1444.35,1517.42 1565.07,1518.88 					"/>
					<polygon class="st8" points="1565.07,1599.62 1444.35,1598.76 1444.35,1564.72 1565.07,1565.83 					"/>
					
						<linearGradient id="SVGID_00000061431335574423540770000009648683682824048057_" gradientUnits="userSpaceOnUse" x1="1698.3282" y1="1492.8176" x2="2027.7781" y2="1492.8176">
						<stop  offset="0" style="stop-color:#FF9085"/>
						<stop  offset="1" style="stop-color:#FB6FBB"/>
					</linearGradient>
					<polygon style="opacity:0.5;fill:url(#SVGID_00000061431335574423540770000009648683682824048057_);" points="2027.78,1511.7 
						1698.33,1507.45 1698.33,1473.93 2027.78,1478.87 					"/>
					<polygon class="st7" points="2198.93,1559.03 1779.78,1554.82 1779.78,1521.48 2198.93,1526.56 					"/>
					
						<linearGradient id="SVGID_00000117634468991058490430000014726808072840187031_" gradientUnits="userSpaceOnUse" x1="1886.8669" y1="961.6994" x2="2067.803" y2="2064.5466">
						<stop  offset="3.597120e-03" style="stop-color:#E38DDD"/>
						<stop  offset="1" style="stop-color:#9571F6"/>
					</linearGradient>
					<polygon style="fill:url(#SVGID_00000117634468991058490430000014726808072840187031_);" points="2198.93,1604.14 
						1779.78,1601.15 1779.78,1567.81 2198.93,1571.67 					"/>
					<polygon class="st8" points="1565.07,1646.56 1444.35,1646.05 1444.35,1612.01 1565.07,1612.78 					"/>
					<polygon class="st8" points="1565.07,1693.51 1444.35,1693.35 1444.35,1659.31 1565.07,1659.72 					"/>
					<polygon class="st8" points="1565.07,1740.46 1444.35,1740.64 1444.35,1706.6 1565.07,1706.67 					"/>
					<polygon class="st8" points="1565.07,1787.4 1444.35,1787.94 1444.35,1753.9 1565.07,1753.62 					"/>
					<polygon class="st8" points="1565.07,1834.35 1444.35,1835.23 1444.35,1801.19 1565.07,1800.56 					"/>
					<polygon class="st8" points="1565.07,1881.3 1444.35,1882.53 1444.35,1848.49 1565.07,1847.51 					"/>
					<polygon class="st8" points="1565.07,1928.24 1444.35,1929.83 1444.35,1895.79 1565.07,1894.45 					"/>
					<polygon class="st8" points="1565.07,1975.19 1444.35,1977.12 1444.35,1943.08 1565.07,1941.4 					"/>
					<polygon class="st8" points="1565.07,2022.14 1444.35,2024.42 1444.35,1990.38 1565.07,1988.35 					"/>
					<polygon class="st8" points="1565.07,2069.08 1444.35,2071.71 1444.35,2037.67 1565.07,2035.29 					"/>
					<polygon class="st8" points="1565.07,2116.03 1444.35,2119.01 1444.35,2084.97 1565.07,2082.24 					"/>
					<polygon class="st8" points="1565.07,2162.98 1444.35,2166.3 1444.35,2132.26 1565.07,2129.19 					"/>
					<polygon class="st8" points="1565.07,2209.92 1444.35,2213.6 1444.35,2179.56 1565.07,2176.13 					"/>
					<polygon class="st8" points="1565.07,2256.87 1444.35,2260.89 1444.35,2226.85 1565.07,2223.08 					"/>
					<polygon class="st8" points="1565.07,2303.81 1444.35,2308.19 1444.35,2274.15 1565.07,2270.03 					"/>
					<polygon class="st8" points="1565.07,2350.76 1444.35,2355.48 1444.35,2321.44 1565.07,2316.97 					"/>
					<polygon class="st8" points="1565.07,2397.71 1444.35,2402.78 1444.35,2368.74 1565.07,2363.92 					"/>
					<polygon class="st8" points="1565.07,2444.65 1444.35,2450.08 1444.35,2416.04 1565.07,2410.87 					"/>
					
						<linearGradient id="SVGID_00000013152492880445220760000011620490777228521621_" gradientUnits="userSpaceOnUse" x1="1590.593" y1="1212.9325" x2="1919.828" y2="1212.9325">
						<stop  offset="0" style="stop-color:#FF9085"/>
						<stop  offset="1" style="stop-color:#FB6FBB"/>
					</linearGradient>
					<polygon style="opacity:0.5;fill:url(#SVGID_00000013152492880445220760000011620490777228521621_);" points="1919.83,1234.78 
						1590.59,1224.82 1590.59,1191.08 1919.83,1201.73 					"/>
					<polygon class="st7" points="2166.67,2191.6 1698.33,2205.86 1698.33,2172.35 2166.67,2159.07 					"/>
					
						<linearGradient id="SVGID_00000109004281835625662710000005949402210974841233_" gradientUnits="userSpaceOnUse" x1="1779.7839" y1="2225.7905" x2="2243.4673" y2="2225.7905">
						<stop  offset="0" style="stop-color:#FF9085"/>
						<stop  offset="1" style="stop-color:#FB6FBB"/>
					</linearGradient>
					<polygon style="opacity:0.5;fill:url(#SVGID_00000109004281835625662710000005949402210974841233_);" points="2243.47,2234.25 
						1779.78,2249.71 1779.78,2216.37 2243.47,2201.87 					"/>
					
						<linearGradient id="SVGID_00000068651658928830384000000011800158922114578855_" gradientUnits="userSpaceOnUse" x1="1779.7839" y1="2271.4458" x2="2243.4673" y2="2271.4458">
						<stop  offset="0" style="stop-color:#FF9085"/>
						<stop  offset="1" style="stop-color:#FB6FBB"/>
					</linearGradient>
					<polygon style="opacity:0.5;fill:url(#SVGID_00000068651658928830384000000011800158922114578855_);" points="2243.47,2279.23 
						1779.78,2296.03 1779.78,2262.69 2243.47,2246.86 					"/>
					
						<linearGradient id="SVGID_00000068669798395752444390000002950682823151963532_" gradientUnits="userSpaceOnUse" x1="1991.6025" y1="2309.2568" x2="2443.281" y2="2309.2568">
						<stop  offset="0" style="stop-color:#FF9085"/>
						<stop  offset="1" style="stop-color:#FB6FBB"/>
					</linearGradient>
					<polygon style="opacity:0.5;fill:url(#SVGID_00000068669798395752444390000002950682823151963532_);" points="2443.28,2316.4 
						1991.6,2334.07 1991.6,2301.17 2443.28,2284.44 					"/>
					
						<linearGradient id="SVGID_00000132810541870335204130000009840101462459329921_" gradientUnits="userSpaceOnUse" x1="2027.4674" y1="1196.3798" x2="2168.7971" y2="2057.8162">
						<stop  offset="3.597120e-03" style="stop-color:#E38DDD"/>
						<stop  offset="1" style="stop-color:#9571F6"/>
					</linearGradient>
					<polygon style="fill:url(#SVGID_00000132810541870335204130000009840101462459329921_);" points="2443.28,2360.81 
						1991.6,2379.79 1991.6,2346.89 2443.28,2328.85 					"/>
					<polygon class="st7" points="2443.28,2405.22 1991.6,2425.5 1991.6,2392.6 2443.28,2373.25 					"/>
					
						<linearGradient id="SVGID_00000134933065399857625050000006927545768950215347_" gradientUnits="userSpaceOnUse" x1="1590.593" y1="2141.21" x2="1919.828" y2="2141.21">
						<stop  offset="0" style="stop-color:#FF9085"/>
						<stop  offset="1" style="stop-color:#FB6FBB"/>
					</linearGradient>
					<polygon style="opacity:0.5;fill:url(#SVGID_00000134933065399857625050000006927545768950215347_);" points="1919.83,2153.2 
						1590.59,2162.27 1590.59,2128.54 1919.83,2120.15 					"/>
					
						<linearGradient id="SVGID_00000155132761445763960060000015489488996385431691_" gradientUnits="userSpaceOnUse" x1="1698.3282" y1="1677.2513" x2="2166.6689" y2="1677.2513">
						<stop  offset="0" style="stop-color:#FF9085"/>
						<stop  offset="1" style="stop-color:#FB6FBB"/>
					</linearGradient>
					<polygon style="opacity:0.5;fill:url(#SVGID_00000155132761445763960060000015489488996385431691_);" points="2166.67,1694.32 
						1698.33,1693.69 1698.33,1660.18 2166.67,1661.79 					"/>
					<polygon class="st7" points="2243.47,1739.41 1779.78,1740.13 1779.78,1706.78 2243.47,1707.03 					"/>
					
						<linearGradient id="SVGID_00000138544538304949836260000003144277183416340628_" gradientUnits="userSpaceOnUse" x1="1779.7839" y1="1769.236" x2="2243.4673" y2="1769.236">
						<stop  offset="0" style="stop-color:#FF9085"/>
						<stop  offset="1" style="stop-color:#FB6FBB"/>
					</linearGradient>
					<polygon style="opacity:0.5;fill:url(#SVGID_00000138544538304949836260000003144277183416340628_);" points="2243.47,1784.4 
						1779.78,1786.45 1779.78,1753.11 2243.47,1752.02 					"/>
					
						<linearGradient id="SVGID_00000006708184862574910440000007686017084831240589_" gradientUnits="userSpaceOnUse" x1="1779.7839" y1="1814.8916" x2="2243.4673" y2="1814.8916">
						<stop  offset="0" style="stop-color:#FF9085"/>
						<stop  offset="1" style="stop-color:#FB6FBB"/>
					</linearGradient>
					<polygon style="opacity:0.5;fill:url(#SVGID_00000006708184862574910440000007686017084831240589_);" points="2243.47,1829.38 
						1779.78,1832.78 1779.78,1799.44 2243.47,1797.01 					"/>
					
						<linearGradient id="SVGID_00000033343083682289118310000012563238575666610854_" gradientUnits="userSpaceOnUse" x1="1591.4135" y1="1862.9524" x2="1888.559" y2="1862.9524">
						<stop  offset="0" style="stop-color:#FF9085"/>
						<stop  offset="1" style="stop-color:#FB6FBB"/>
					</linearGradient>
					<polygon style="opacity:0.5;fill:url(#SVGID_00000033343083682289118310000012563238575666610854_);" points="1888.56,1877.99 
						1591.41,1881.03 1591.41,1847.29 1888.56,1844.88 					"/>
					<polygon class="st7" points="2027.78,1922.18 1698.33,1926.5 1698.33,1892.99 2027.78,1889.35 					"/>
					
						<linearGradient id="SVGID_00000069397591010691573960000008522448500654046618_" gradientUnits="userSpaceOnUse" x1="1838.8352" y1="1034.6931" x2="2003.0818" y2="2035.8136">
						<stop  offset="3.597120e-03" style="stop-color:#E38DDD"/>
						<stop  offset="1" style="stop-color:#9571F6"/>
					</linearGradient>
					<polygon style="fill:url(#SVGID_00000069397591010691573960000008522448500654046618_);" points="2198.93,1965.05 
						1779.78,1971.76 1779.78,1938.41 2198.93,1932.58 					"/>
					
						<linearGradient id="SVGID_00000178185056631904842390000002241907177846448568_" gradientUnits="userSpaceOnUse" x1="1779.7839" y1="1997.8876" x2="2198.9333" y2="1997.8876">
						<stop  offset="0" style="stop-color:#FF9085"/>
						<stop  offset="1" style="stop-color:#FB6FBB"/>
					</linearGradient>
					<polygon style="opacity:0.5;fill:url(#SVGID_00000178185056631904842390000002241907177846448568_);" points="2198.93,2010.16 
						1779.78,2018.08 1779.78,1984.74 2198.93,1977.69 					"/>
					
						<linearGradient id="SVGID_00000092439469873217643940000016849889424383553442_" gradientUnits="userSpaceOnUse" x1="1877.748" y1="2041.6256" x2="2291.854" y2="2041.6256">
						<stop  offset="0" style="stop-color:#FF9085"/>
						<stop  offset="1" style="stop-color:#FB6FBB"/>
					</linearGradient>
					<polygon style="opacity:0.5;fill:url(#SVGID_00000092439469873217643940000016849889424383553442_);" points="2291.85,2053.25 
						1877.75,2062.27 1877.75,2029.13 2291.85,2020.98 					"/>
					
						<linearGradient id="SVGID_00000024723665823283635600000002520913743800952736_" gradientUnits="userSpaceOnUse" x1="1877.748" y1="2087.0693" x2="2291.854" y2="2087.0693">
						<stop  offset="0" style="stop-color:#FF9085"/>
						<stop  offset="1" style="stop-color:#FB6FBB"/>
					</linearGradient>
					<polygon style="opacity:0.5;fill:url(#SVGID_00000024723665823283635600000002520913743800952736_);" points="2291.85,2098.1 
						1877.75,2108.32 1877.75,2075.18 2291.85,2065.82 					"/>
					
						<linearGradient id="SVGID_00000040533691765544198120000001221735260013960361_" gradientUnits="userSpaceOnUse" x1="1650.3331" y1="991.5943" x2="1832.3496" y2="2101.0259">
						<stop  offset="3.597120e-03" style="stop-color:#E38DDD"/>
						<stop  offset="1" style="stop-color:#9571F6"/>
					</linearGradient>
					<polygon style="fill:url(#SVGID_00000040533691765544198120000001221735260013960361_);" points="1919.83,1648.07 
						1590.59,1646.67 1590.59,1612.94 1919.83,1615.02 					"/>
					<polygon class="st29" points="1318.97,1306.05 1019.86,1298.62 1019.86,1249.45 1318.97,1257.76 					"/>
					<polygon class="st7" points="942.49,1296.7 998.83,1298.1 998.83,1248.87 942.49,1247.3 					"/>
					<polygon class="st7" points="1318.97,1375.47 1019.86,1369.3 1019.86,1320.13 1318.97,1327.18 					"/>
					<polygon class="st7" points="942.49,1367.71 998.83,1368.87 998.83,1319.64 942.49,1318.31 					"/>
					<polygon class="st7" points="1318.97,1444.89 1019.86,1439.98 1019.86,1390.81 1318.97,1396.6 					"/>
					<polygon class="st7" points="942.49,1438.71 998.83,1439.64 998.83,1390.41 942.49,1389.32 					"/>
					<polygon class="st29" points="1318.97,1937.67 796.39,1944.71 796.39,1894.89 1318.97,1889.37 					"/>
					<polygon class="st7" points="1318.97,2013.12 1019.86,2018.53 1019.86,1969.36 1318.97,1964.83 					"/>
					<polygon class="st7" points="942.49,2019.92 998.83,2018.91 998.83,1969.67 942.49,1970.53 					"/>
					<polygon class="st7" points="1318.97,2082.55 1019.86,2089.21 1019.86,2040.04 1318.97,2034.25 					"/>
					<polygon class="st7" points="942.49,2090.93 998.83,2089.68 998.83,2040.44 942.49,2041.53 					"/>
					<polygon class="st7" points="1318.97,2151.97 1019.86,2159.89 1019.86,2110.72 1318.97,2103.67 					"/>
					<polygon class="st7" points="942.49,2161.94 998.83,2160.45 998.83,2111.21 942.49,2112.54 					"/>
					<polygon class="st29" points="1318.97,1514.79 796.39,1508.42 796.39,1458.6 1318.97,1466.49 					"/>
					<polygon class="st7" points="1318.97,1590.24 1019.86,1587.97 1019.86,1538.8 1318.97,1541.95 					"/>
					<polygon class="st7" points="942.49,1587.38 998.83,1587.81 998.83,1538.58 942.49,1537.99 					"/>
					<polygon class="st7" points="1318.97,1659.67 1019.86,1658.65 1019.86,1609.48 1318.97,1611.37 					"/>
					<polygon class="st7" points="942.49,1658.39 998.83,1658.58 998.83,1609.35 942.49,1609 					"/>
					<polygon class="st7" points="1318.97,1799.41 1019.86,1800.93 1019.86,1751.76 1318.97,1751.12 					"/>
					<polygon class="st7" points="942.49,1801.33 998.83,1801.04 998.83,1751.81 942.49,1751.93 					"/>
					<polygon class="st7" points="1318.97,1868.83 1019.86,1871.62 1019.86,1822.45 1318.97,1820.54 					"/>
					<polygon class="st7" points="942.49,1872.34 998.83,1871.81 998.83,1822.58 942.49,1822.94 					"/>
					<polygon class="st7" points="1318.97,1729.09 1019.86,1729.33 1019.86,1680.17 1318.97,1680.79 					"/>
					<polygon class="st7" points="942.49,1729.4 998.83,1729.35 998.83,1680.12 942.49,1680 					"/>
					<polygon class="st29" points="1318.97,2221.37 796.39,2237.41 796.39,2187.58 1318.97,2173.07 					"/>
					<polygon class="st7" points="1318.97,2296.82 1019.86,2307.37 1019.86,2258.2 1318.97,2248.53 					"/>
					<polygon class="st7" points="942.49,2310.1 998.83,2308.12 998.83,2258.88 942.49,2260.71 					"/>
					<polygon class="st7" points="1318.97,2366.25 1019.86,2378.06 1019.86,2328.89 1318.97,2317.95 					"/>
					<polygon class="st7" points="942.49,2381.11 998.83,2378.89 998.83,2329.65 942.49,2331.71 					"/>
					<polygon class="st7" points="1318.97,2435.67 1019.86,2448.74 1019.86,2399.57 1318.97,2387.38 					"/>
					<polygon class="st7" points="942.49,2452.12 998.83,2449.66 998.83,2400.42 942.49,2402.72 					"/>
					<polygon class="st7" points="1382.47,2433.13 1370.96,2433.64 1370.96,1183.98 1382.47,1184.35 					"/>
				</g>
				<path class="st7" d="M2810.36,2491.23c-507.38,10.61-621.48,83.05-765.66-3.75c-198.11-119.28-107.89-331.46-300.9-442.76
					c-242.66-139.93-522.44,116.34-649.09-8.6c-126.13-124.42,112.13-417.25-25.79-743.66c-55.35-130.99-149.6-216.07-214.7-264.85
					l-131.33-5.69c-50.4-2.18-91.63,31.18-91.63,74.39v1557.36c0,43.21,41.23,75.91,91.63,72.9l2330.8-138.95
					c37-2.21,66.96-33.89,66.96-70.64v-23.55C3050.79,2490.96,2942.58,2488.46,2810.36,2491.23z"/>
			</g>
		</g>
		<g>
			
				<linearGradient id="SVGID_00000065787826322650354230000004403347388370791045_" gradientUnits="userSpaceOnUse" x1="2574.9492" y1="442.8781" x2="2768.5989" y2="1393.5239">
				<stop  offset="0" style="stop-color:#AB316D"/>
				<stop  offset="1" style="stop-color:#792D3D"/>
			</linearGradient>
			<path style="fill:url(#SVGID_00000065787826322650354230000004403347388370791045_);" d="M2881.11,590.62l-486.04-36.75
				c-46.04-3.48-83.6,33.76-83.6,83.2v151.52c0,49.44,37.56,91.39,83.6,93.67l486.04,24.16c42.27,2.1,76.32-34.26,76.32-81.19
				V681.38C2957.43,634.44,2923.38,593.82,2881.11,590.62z"/>
			<g>
				
					<linearGradient id="SVGID_00000086662401361209561920000005137180518007504263_" gradientUnits="userSpaceOnUse" x1="2732.5557" y1="2041.7587" x2="2617.4609" y2="1060.068">
					<stop  offset="0" style="stop-color:#AB316D"/>
					<stop  offset="1" style="stop-color:#792D3D"/>
				</linearGradient>
				<path style="fill:url(#SVGID_00000086662401361209561920000005137180518007504263_);" d="M2809.42,1122.08l-337.75-10.75
					c-23.44-0.75-42.51,19.15-42.51,44.44v169.12c0,25.29,19.07,46.01,42.51,46.27l337.75,3.78c22.12,0.25,39.99-19.37,39.99-43.82
					v-163.5C2849.42,1143.17,2831.54,1122.78,2809.42,1122.08z"/>
			</g>
			<g>
				<polygon class="st32" points="2650.46,1092.83 2635.21,1092.31 2635.21,914.56 2650.46,915.3 				"/>
			</g>
			<g>
				
					<linearGradient id="SVGID_00000042726563447558083750000004206108532998133888_" gradientUnits="userSpaceOnUse" x1="2557.4438" y1="1393.1301" x2="2749.8789" y2="2194.9453">
					<stop  offset="0" style="stop-color:#AB316D"/>
					<stop  offset="1" style="stop-color:#792D3D"/>
				</linearGradient>
				<path style="fill:url(#SVGID_00000042726563447558083750000004206108532998133888_);" d="M2809.42,1603.3l-337.75,2.51
					c-23.44,0.17-42.51,20.82-42.51,46.11v169.12c0,25.29,19.07,45.26,42.51,44.6l337.75-9.48c22.12-0.62,39.99-20.94,39.99-45.39
					v-163.5C2849.42,1622.83,2831.54,1603.14,2809.42,1603.3z"/>
			</g>
			
				<linearGradient id="SVGID_00000125583455075339078600000000550516017162554255_" gradientUnits="userSpaceOnUse" x1="2587.9858" y1="443.561" x2="2781.5374" y2="1393.7253">
				<stop  offset="0" style="stop-color:#FF9085"/>
				<stop  offset="1" style="stop-color:#FB6FBB"/>
			</linearGradient>
			<path style="fill:url(#SVGID_00000125583455075339078600000000550516017162554255_);" d="M2893.92,591.21l-485.65-36.73
				c-46-3.48-83.53,33.75-83.53,83.17v151.46c0,49.42,37.53,91.35,83.53,93.64l485.65,24.14c42.24,2.1,76.26-34.24,76.26-81.16
				V681.93C2970.19,635.01,2936.16,594.4,2893.92,591.21z"/>
			<g>
				
					<linearGradient id="SVGID_00000152954548555743051660000007558919817965976502_" gradientUnits="userSpaceOnUse" x1="2745.5146" y1="2041.7255" x2="2630.4729" y2="1060.4867">
					<stop  offset="3.597000e-03" style="stop-color:#F36F56"/>
					<stop  offset="1" style="stop-color:#FFC444"/>
				</linearGradient>
				<path style="fill:url(#SVGID_00000152954548555743051660000007558919817965976502_);" d="M2822.29,1122.46l-337.48-10.74
					c-23.42-0.75-42.47,19.14-42.47,44.42v169.05c0,25.28,19.05,45.99,42.47,46.25l337.48,3.78c22.1,0.25,39.96-19.37,39.96-43.81
					v-163.43C2862.25,1143.55,2844.39,1123.16,2822.29,1122.46z"/>
			</g>
			<g>
				
					<linearGradient id="SVGID_00000137111146020800414430000008570344561660280235_" gradientUnits="userSpaceOnUse" x1="2570.4868" y1="1393.4408" x2="2762.8254" y2="2194.8545">
					<stop  offset="3.597120e-03" style="stop-color:#E38DDD"/>
					<stop  offset="1" style="stop-color:#9571F6"/>
				</linearGradient>
				<path style="fill:url(#SVGID_00000137111146020800414430000008570344561660280235_);" d="M2822.29,1603.49l-337.48,2.51
					c-23.42,0.17-42.47,20.81-42.47,46.09v169.05c0,25.28,19.05,45.24,42.47,44.58l337.48-9.47c22.1-0.62,39.96-20.93,39.96-45.38
					v-163.43C2862.25,1623.01,2844.39,1603.33,2822.29,1603.49z"/>
			</g>
			<g>
				<polygon class="st32" points="2650.46,1580.29 2635.21,1580.37 2635.21,1402.62 2650.46,1402.76 				"/>
			</g>
		</g>
		<g>
			
				<linearGradient id="SVGID_00000008148289054528424450000002363892322227578281_" gradientUnits="userSpaceOnUse" x1="1870.4275" y1="1529.0199" x2="1104.4052" y2="2630.1765">
				<stop  offset="3.597120e-03" style="stop-color:#E38DDD"/>
				<stop  offset="1" style="stop-color:#9571F6"/>
			</linearGradient>
			<path style="fill:url(#SVGID_00000008148289054528424450000002363892322227578281_);" d="M2408.56,2063.99l2.15-1.28
				c-36.88-3.43-92.62-15.75-125.3-23.55c-1.14,0.17-2.43,0.08-3.56,0.26c-33.68,4.89-71.93,7.19-112.91,4.83
				c-40.97-2.18-84.68-9.96-128.58-23.25c-5.52-1.43-10.96-3.65-16.44-5.44c-2.72-0.96-5.51-1.9-8.25-2.88l-4.1-1.38
				c-1.4-0.51-2.74-1.1-4.11-1.63c-5.42-2.18-10.87-4.35-16.36-6.53l-4.1-1.63l-4.04-1.88c-2.7-1.23-5.4-2.45-8.07-3.69
				c-10.92-4.68-21.43-10.49-32.1-15.9c-5.3-2.84-10.52-6.02-15.74-9.01c-2.59-1.47-5.24-2.98-7.84-4.52
				c-2.55-1.64-5.14-3.3-7.68-4.91c-41.08-25.98-78.98-58.45-111.39-95.62c-3.97-4.69-7.95-9.38-11.95-14.12
				c-3.85-4.8-7.49-9.83-11.22-14.67l-5.6-7.35l-5.16-7.66l-5.22-7.62c-1.71-2.55-3.53-4.99-5.07-7.68
				c-3.17-5.24-6.37-10.47-9.56-15.73c-0.77-1.29-1.69-2.63-2.33-3.89l-1.92-3.63l-3.83-7.25l-3.82-7.18
				c-0.34-0.63-0.6-1.06-1.03-1.9l-3.75-7.48l-5.06-9.98l-3.75-7.48l-0.64-1.25l-0.23-0.45c0.03-0.02-1.49-2.49,1.09,1.64
				l-6.98-16.84c-1.12-2.79-2.42-5.51-3.38-8.39l-3.01-8.5l-3.04-8.49l-1.51-4.23c-0.51-1.41-0.88-2.86-1.32-4.27
				c-1.71-5.72-3.44-11.42-5.11-17.12c-0.96-2.81-1.54-5.74-2.26-8.59l-2.05-8.61l-2.16-8.54l-1.64-8.64
				c-1.05-5.78-2.32-11.43-3.19-17.14c-0.8-5.71-1.61-11.46-2.37-17.16c-5.55-45.67-4.22-90.51,2.95-132.28l1.23-7.8l1.69-7.71
				c1.1-5.1,2-10.23,3.28-15.22c0.03-0.2,0.12-0.4,0.15-0.6c2.65-9.82,4.87-19.49,8.11-28.82c0.72-2.4,1.47-4.78,2.25-7.14
				l1.08-3.56l1.33-3.49c1.68-4.61,3.41-9.22,5.08-13.79c0.42-1.13,0.78-2.29,1.23-3.43l1.45-3.31c0.95-2.24,1.92-4.46,2.83-6.65
				c1.97-4.38,3.54-8.82,5.76-13.02c16.1-33.97,34.75-63.67,54.78-88.26c19.93-24.64,40.56-44.53,59.81-60.38
				c2.45-1.94,4.84-3.84,7.21-5.73c2.37-1.82,4.56-3.82,6.99-5.42c4.75-3.39,9.25-6.63,13.55-9.75c4.45-3.03,8.88-5.68,12.92-8.35
				c2.04-1.33,4-2.69,5.94-3.88c2.06-1.12,4.05-2.24,5.94-3.34c3.81-2.21,7.41-4.29,10.77-6.23c0.92-0.59,1.5-0.72,2.18-1.05
				c0.66-0.29,1.33-0.58,1.97-0.85c1.24-0.6,1.18-0.34,2.32-0.88c0.96-0.47,1.45-0.62,1.5-0.53L2013,1340.84l54.75-178.47
				l123.52-412.64l-605.19-122.31l112.24,187.56c0.16,0.27-2.88,2.49-5.23,4.29c-5.01,3.98-9.86,7.94-15.81,12.66
				c-2.93,2.41-5.68,4.63-8.83,7.22c-1.53,1.28-2.99,2.48-4.6,3.81c-1.6,1.28-3.33,2.65-4.65,3.91c-5.7,5.2-11.72,10.66-18.15,16.47
				c-3.15,2.94-6.41,5.91-9.73,8.99c-3.29,3.14-6.55,6.47-9.91,9.86c-6.69,6.77-13.82,13.73-20.9,21.32
				c-6.93,7.72-14.12,15.73-21.6,24.04c-3.79,4.13-7.25,8.64-10.95,13.11c-3.6,4.45-7.31,9.03-11.07,13.69
				c-29.5,37.44-59.24,82.22-85.17,133.84c-26.03,51.53-47.56,110.2-62.29,173.36c-2.06,7.82-3.38,15.9-5.03,23.92
				c-0.76,4.02-1.56,8.04-2.35,12.08l-1.15,6.11l-0.94,6.1c-1.19,8.18-2.4,16.44-3.63,24.68l-0.88,6.21l-0.62,6.27
				c-0.42,4.22-0.83,8.41-1.23,12.61c-1.92,16.7-2.46,33.75-3.3,50.86c-0.28,8.54-0.16,17.14-0.19,25.79
				c0,4.26,0.03,8.58,0.01,12.92c0.19,4.33,0.38,8.66,0.56,12.99c2.64,69.3,15.45,139.95,38.3,207.59c3,8.37,6.01,16.8,9.03,25.19
				c3.1,8.35,6.71,16.57,10.08,24.82l5.2,12.33l5.73,12.13l5.74,12.08c1.93,4.02,3.76,8.06,5.93,11.97
				c4.21,7.83,7.87,16.02,12.1,23.87c1.04,1.92,1.47,4.29,2.61,6.19l3.44,5.74l7.46,11.01l7.2,11.17c2.28,3.81,5.07,7.31,7.52,10.98
				l14.93,21.85c3.16,5.1,1.19,1.69,2.01,2.99l0.43,0.54l0.86,1.13l1.73,2.17l3.45,4.42l6.86,8.79l3.45,4.42l1.71,2.18l2.15,2.68
				l8.96,10.96l9.01,10.92l4.5,5.39c1.49,1.77,2.97,3.25,4.46,4.91c5.94,6.39,11.9,12.77,17.81,19.17c2.91,3.21,6.1,6.18,9.19,9.21
				l9.34,9.09l9.29,9.01l9.69,8.59c6.48,5.66,12.85,11.43,19.44,16.85c6.7,5.35,13.37,10.65,20.03,15.95
				c54.03,41.36,112.44,73.65,171.41,96.16c3.67,1.45,7.35,2.85,11,4.27c3.7,1.32,7.4,2.57,11.12,3.8c7.4,2.5,14.64,5.12,22.03,7.36
				c14.89,4.24,29.38,8.68,44.1,11.85c3.65,0.87,7.3,1.68,10.93,2.56l5.41,1.24l5.46,1.03c7.29,1.35,14.53,2.67,21.68,3.96
				l5.39,0.97l5.41,0.77c3.58,0.44,7.17,0.96,10.72,1.42c7.13,0.9,14.14,2.14,21.21,2.57c37.89,3.73,74.36,4.28,108.74,2.21
				c16.72-0.97,32.95-2.64,48.61-4.9c47.92-6.71,90.53-18.12,126.87-30.98c4.51-1.72,8.97-3.33,13.35-4.96
				c4.33-1.65,8.67-3.11,12.77-4.95c8.25-3.56,16.19-6.92,23.8-10.2c7.56-3.43,14.63-7.08,21.45-10.36
				c3.36-1.69,6.69-3.24,9.92-4.92c3.12-1.72,6.51-2.88,9.54-4.51C2397.21,2069.5,2403.38,2067.08,2408.56,2063.99z"/>
			
				<linearGradient id="SVGID_00000128459082176778353450000014166146189915051171_" gradientUnits="userSpaceOnUse" x1="5543.686" y1="-4403.939" x2="5838.7212" y2="-4808.2861" gradientTransform="matrix(0.5135 0.8581 0.8581 -0.5135 3040.6387 -5399.8799)">
				<stop  offset="3.597120e-03" style="stop-color:#6165D7"/>
				<stop  offset="1" style="stop-color:#AA80F9"/>
			</linearGradient>
			<path style="opacity:0.4;fill:url(#SVGID_00000128459082176778353450000014166146189915051171_);" d="M2408.56,2063.99l2.15-1.28
				c-36.88-3.43-92.62-15.75-125.3-23.55c-1.14,0.17-2.43,0.08-3.56,0.26c-33.68,4.89-71.93,7.19-112.91,4.83
				c-40.97-2.18-84.68-9.96-128.58-23.25c-5.52-1.43-10.96-3.65-16.44-5.44c-2.72-0.96-5.51-1.9-8.25-2.88l-4.1-1.38
				c-1.4-0.51-2.74-1.1-4.11-1.63c-5.42-2.18-10.87-4.35-16.36-6.53l-4.1-1.63l-4.04-1.88c-2.7-1.23-5.4-2.45-8.07-3.69
				c-10.92-4.68-21.43-10.49-32.1-15.9c-5.3-2.84-10.52-6.02-15.74-9.01c-2.59-1.47-5.24-2.98-7.84-4.52
				c-2.55-1.64-5.14-3.3-7.68-4.91c-41.08-25.98-78.98-58.45-111.39-95.62c-3.97-4.69-7.95-9.38-11.95-14.12
				c-3.85-4.8-7.49-9.83-11.22-14.67l-5.6-7.35l-5.16-7.66l-5.22-7.62c-1.71-2.55-3.53-4.99-5.07-7.68
				c-3.17-5.24-6.37-10.47-9.56-15.73c-0.77-1.29-1.69-2.63-2.33-3.89l-1.92-3.63l-3.83-7.25l-3.82-7.18
				c-0.34-0.63-0.6-1.06-1.03-1.9l-3.75-7.48l-5.06-9.98l-3.75-7.48l-0.64-1.25l-0.23-0.45c0.03-0.02-1.49-2.49,1.09,1.64
				l-6.98-16.84c-1.12-2.79-2.42-5.51-3.38-8.39l-3.01-8.5l-3.04-8.49l-1.51-4.23c-0.51-1.41-0.88-2.86-1.32-4.27
				c-1.71-5.72-3.44-11.42-5.11-17.12c-0.96-2.81-1.54-5.74-2.26-8.59l-2.05-8.61l-2.16-8.54l-1.64-8.64
				c-1.05-5.78-2.32-11.43-3.19-17.14c-0.8-5.71-1.61-11.46-2.37-17.16c-5.55-45.67-4.22-90.51,2.95-132.28l1.23-7.8l1.69-7.71
				c1.1-5.1,2-10.23,3.28-15.22c0.03-0.2,0.12-0.4,0.15-0.6c-50.71,137.98-37.63,304.53,49.07,449.41
				c88.84,148.45,234.22,239.54,383.53,257.06c16.72-0.97,32.95-2.64,48.61-4.9c47.92-6.71,90.53-18.12,126.87-30.98
				c4.51-1.72,8.97-3.33,13.35-4.96c4.33-1.65,8.67-3.11,12.77-4.95c8.25-3.56,16.19-6.92,23.8-10.2
				c7.56-3.43,14.63-7.08,21.45-10.36c3.36-1.69,6.69-3.24,9.92-4.92c3.12-1.72,6.51-2.88,9.54-4.51
				C2397.21,2069.5,2403.38,2067.08,2408.56,2063.99z"/>
		</g>
		<g>
			<path class="st0" d="M2271.68,1999.07c-2.18,0.6-4.03,2.05-5.11,4.04c-1.08,1.99-1.31,4.33-0.64,6.48l47.47,151.13
				c1.36,4.32,5.92,6.76,10.27,5.5l110.26-32.16c4.39-1.28,6.93-5.87,5.68-10.27l-42.74-150.4c-1.25-4.39-5.8-6.96-10.2-5.75
				L2271.68,1999.07z"/>
			
				<linearGradient id="SVGID_00000096760065819571421890000001536179425393978259_" gradientUnits="userSpaceOnUse" x1="2244.6943" y1="1887.8954" x2="2485.3586" y2="2279.0835">
				<stop  offset="0" style="stop-color:#FF9085"/>
				<stop  offset="1" style="stop-color:#FB6FBB"/>
			</linearGradient>
			<path style="fill:url(#SVGID_00000096760065819571421890000001536179425393978259_);" d="M2280.46,2006.42
				c-1.95,0.53-3.59,1.83-4.56,3.6c-0.97,1.77-1.17,3.86-0.57,5.78l42.34,134.77c1.21,3.85,5.28,6.03,9.16,4.9l98.32-28.68
				c3.92-1.14,6.18-5.23,5.06-9.16l-38.12-134.12c-1.11-3.92-5.17-6.2-9.1-5.13L2280.46,2006.42z"/>
			<path class="st40" d="M2295.16,2013.93c-1.5,0.41-2.77,1.41-3.52,2.77c-0.75,1.36-0.92,2.97-0.47,4.45l13.4,43.96
				c0.9,2.96,3.99,4.68,6.99,3.88l78.46-21.05c1.48-0.4,2.74-1.37,3.5-2.7c0.76-1.33,0.96-2.91,0.54-4.39l-12.45-44.61
				c-0.85-3.05-4-4.83-7.05-4L2295.16,2013.93z"/>
			<path class="st40" d="M2315.09,2084.06c-1.55,0.42-2.85,1.45-3.63,2.86s-0.95,3.06-0.48,4.59l13.82,45.36
				c0.93,3.06,4.12,4.83,7.21,4l80.96-21.72c1.53-0.41,2.83-1.41,3.61-2.79c0.78-1.38,0.99-3.01,0.56-4.53l-12.85-46.04
				c-0.88-3.14-4.13-4.99-7.27-4.13L2315.09,2084.06z"/>
			
				<linearGradient id="SVGID_00000115473712012219502000000006912823531252684682_" gradientUnits="userSpaceOnUse" x1="2820.7458" y1="2005.4545" x2="2938.7209" y2="2513.261">
				<stop  offset="0" style="stop-color:#FF9085"/>
				<stop  offset="1" style="stop-color:#FB6FBB"/>
			</linearGradient>
			<path style="fill:url(#SVGID_00000115473712012219502000000006912823531252684682_);" d="M2913.28,2076.61
				c6.2,2.34,100.81,39.97,120.25,138.71c1.57,7.98,16.77,92.81-40.76,152.74c-64.51,67.2-188.73,65.54-238.04,9.36
				c-11.5-13.1-17.57-27.62-20.96-39.82l0,0l12.99-34.52c15.85-19.14,37.44-23.67,48.96-26.51c28.42-7,49.87,5.65,66.15-8.05
				c9.01-7.58,10.79-18.5,12.39-28.24c5.44-33.2-13.3-53.64-14.66-74.12c-1.02-15.31-6.38-48.84,13.6-70.72
				C2885.86,2081.6,2903.38,2077.83,2913.28,2076.61z"/>
			
				<linearGradient id="SVGID_00000177442615803572426200000017317231532322872716_" gradientUnits="userSpaceOnUse" x1="2598.6648" y1="3349.2021" x2="2637.4402" y2="3383.6929" gradientTransform="matrix(0.9902 -0.14 0.14 0.9902 -102.8428 206.9384)">
				<stop  offset="0" style="stop-color:#444B8C"/>
				<stop  offset="0.9964" style="stop-color:#26264F"/>
			</linearGradient>
			<path style="fill:url(#SVGID_00000177442615803572426200000017317231532322872716_);" d="M2950.15,3177.05
				c1.1-6.08,20.73-11.58,30.45-3.44c4.83,4.04,8.15,12.24,5.36,15.94c-1.02,1.35,3.14,3.71-0.84,3.76
				C2971.89,3193.46,2949.05,3183.09,2950.15,3177.05z"/>
			
				<linearGradient id="SVGID_00000032611114948227907820000001241959545144615085_" gradientUnits="userSpaceOnUse" x1="1710.7505" y1="3383.7415" x2="1710.7505" y2="3316.1902" gradientTransform="matrix(0.9902 -0.14 0.14 0.9902 813.3583 77.4224)">
				<stop  offset="0" style="stop-color:#FFC444"/>
				<stop  offset="0.9964" style="stop-color:#F36F56"/>
			</linearGradient>
			<path style="fill:url(#SVGID_00000032611114948227907820000001241959545144615085_);" d="M2970.72,3179.26l20.19-2.85
				c-9.35-11.26-7.62-47.12-7.62-47.12l-21.47,4.79c0,0,2.45,9.84,6.61,24.36C2969.85,3163.41,2970.49,3171.19,2970.72,3179.26z"/>
			
				<linearGradient id="SVGID_00000152251089824588479250000014175347568639869864_" gradientUnits="userSpaceOnUse" x1="2602.5632" y1="3344.8208" x2="2641.3384" y2="3379.3113" gradientTransform="matrix(0.9902 -0.14 0.14 0.9902 -102.8428 206.9384)">
				<stop  offset="0" style="stop-color:#444B8C"/>
				<stop  offset="0.9964" style="stop-color:#26264F"/>
			</linearGradient>
			<path style="fill:url(#SVGID_00000152251089824588479250000014175347568639869864_);" d="M2968.93,3176.77
				c0,0,24.31-5.6,26.94-0.78c2.63,4.82,4.67,17.73-10.75,17.31C2969.7,3192.89,2967.56,3180.86,2968.93,3176.77z"/>
			
				<linearGradient id="SVGID_00000092419547301557672800000002995280363479192730_" gradientUnits="userSpaceOnUse" x1="2664.7922" y1="3180.9453" x2="2703.5693" y2="3215.4377">
				<stop  offset="0" style="stop-color:#444B8C"/>
				<stop  offset="0.9964" style="stop-color:#26264F"/>
			</linearGradient>
			<path style="fill:url(#SVGID_00000092419547301557672800000002995280363479192730_);" d="M2673.13,3199.84
				c1.94-5.86,22.15-8.56,30.64,0.86c4.21,4.68,6.36,13.26,3.07,16.53c-1.19,1.19,2.59,4.12-1.36,3.61
				C2692.37,3219.14,2671.2,3205.67,2673.13,3199.84z"/>
			
				<linearGradient id="SVGID_00000103949329710754496410000014626718360537914298_" gradientUnits="userSpaceOnUse" x1="1713.859" y1="526.747" x2="1756.5109" y2="563.0587" gradientTransform="matrix(0.1359 0.9907 0.9907 -0.1359 1532.756 497.6357)">
				<stop  offset="0" style="stop-color:#FFC444"/>
				<stop  offset="0.9964" style="stop-color:#F36F56"/>
			</linearGradient>
			<path style="fill:url(#SVGID_00000103949329710754496410000014626718360537914298_);" d="M2323.65,2171.05l-18.45-8.84
				c-2.87-2.29-7.25-6.36-10.57-12.59c-5.47-10.26-5.38-21.36-5.31-21.38c0.04-0.01-0.84-14.94,5.49-17.46
				c0.83-0.33,1.79-0.44,2.89-0.26l6.56,17.28c0,0,1.05,7.52,12.91,15.32c11.76,10.24,16.49,19.6,16.49,19.6L2323.65,2171.05z"/>
			
				<linearGradient id="SVGID_00000110451855404877899680000018261617065526655618_" gradientUnits="userSpaceOnUse" x1="1776.8341" y1="3215.5066" x2="1776.8341" y2="3147.9524" gradientTransform="matrix(1 0 0 1 925.3102 0)">
				<stop  offset="0" style="stop-color:#FFC444"/>
				<stop  offset="0.9964" style="stop-color:#F36F56"/>
			</linearGradient>
			<path style="fill:url(#SVGID_00000110451855404877899680000018261617065526655618_);" d="M2693.2,3204.91h20.39
				c-7.68-12.46-0.95-47.73-0.95-47.73l-21.93,1.74c0,0,1.04,10.09,3.13,25.05C2694.55,3189.1,2694.09,3196.89,2693.2,3204.91z"/>
			
				<linearGradient id="SVGID_00000129173853527995739810000016740272086580198037_" gradientUnits="userSpaceOnUse" x1="-423.2149" y1="3246.4836" x2="-676.0682" y2="2225.5916" gradientTransform="matrix(-1 0 0 1 2275.7473 0)">
				<stop  offset="0" style="stop-color:#444B8C"/>
				<stop  offset="0.9964" style="stop-color:#26264F"/>
			</linearGradient>
			<path style="fill:url(#SVGID_00000129173853527995739810000016740272086580198037_);" d="M2640.35,2433.86
				c-9.45,31.19-22.93,81.53-31.62,144.69c-24.77,180.15,27.87,185.9,18.04,385.53c-3.14,63.72,55.21,210.66,60.35,213.91
				c2.49,0.24,5.19,0.4,8.07,0.32c5.07-0.15,12.23-0.93,20.55-3.43c9.24-1.59,42.56-91.85,34.84-145.51
				c-5.47-37.98-3.88-78.74-0.71-160.26c0.51-13.21,34.31-256.99,34.31-256.99l0,0c10.28,90.23,22.1,166.9,32.35,226.35
				c32.93,190.98,140,306.57,145.58,308.43c1.1,0.44,11.15,4.09,19.36-1.32c3.66-2.41,4.9-5.52,4.9-5.52
				c2.86-2.24-0.84-190.67-33.5-332.48c-47.4-205.83-26.76-254-41.78-345.94C2898.11,2382.1,2640.35,2433.86,2640.35,2433.86z"/>
			
				<linearGradient id="SVGID_00000127026678844701418640000011040516694151413645_" gradientUnits="userSpaceOnUse" x1="2727.8477" y1="2027.0369" x2="2845.8228" y2="2534.8435">
				<stop  offset="0" style="stop-color:#FF9085"/>
				<stop  offset="1" style="stop-color:#FB6FBB"/>
			</linearGradient>
			<path style="fill:url(#SVGID_00000127026678844701418640000011040516694151413645_);" d="M2831.82,2060.55
				c-31.47-0.93-92.43-11.2-132.27,24.65c-0.69,0.62-3.91,4.15-7.93,8.86c-3.73,4.37-16.53,19.68-28.13,40.37
				c-8.4,14.98-15.99,32.45-23.64,58.48c-13.5,45.91-17.37,85-18.66,102.03c-7.28,95.78-0.06,139.97,6.49,170.02
				c28.45,14.62,101.77,40.77,189.14,27.77c39.9-5.94,71.83-19.21,94.29-31.06c-22.67-68.64-4.88-105.37,3.51-139.22
				c11.97-48.27,12.16-44.62,22.01-82.97c16.25-63.27,18.92-127.92,7.75-141.15C2914.26,2062.67,2860,2061.38,2831.82,2060.55z"/>
			
				<linearGradient id="SVGID_00000141453326852199303140000002793649465955899574_" gradientUnits="userSpaceOnUse" x1="2676.553" y1="2193.7434" x2="3008.7427" y2="2457.386">
				<stop  offset="0" style="stop-color:#FF9085"/>
				<stop  offset="1" style="stop-color:#FB6FBB"/>
			</linearGradient>
			<path style="opacity:0.3;fill:url(#SVGID_00000141453326852199303140000002793649465955899574_);" d="M2944.37,2098.34
				c-16.91-20.03-41.42-29.21-64.66-33.57c10.89,48.63-13.85,108.18-47.44,139.79c-31.33,29.49-60.16,9.91-80.93,34.5
				c-17.15,20.31-17.71,53.31-9.06,75.94c11.7,30.61,36.95,33.59,35.63,50.87c-1.74,22.9-47.79,39.95-81.66,43.14
				c-35.38,3.33-63.58-7.88-77.57-14.64c1.42,32.4,5.31,53.73,8.98,70.6c28.45,14.62,101.77,40.77,189.14,27.77
				c39.9-5.94,71.82-19.21,94.29-31.06c-22.67-68.64-4.88-105.37,3.51-139.22c11.97-48.27,12.16-44.62,22.01-82.97
				C2952.87,2176.22,2955.54,2111.57,2944.37,2098.34z"/>
			
				<linearGradient id="SVGID_00000080177503260983229330000002804000775214899111_" gradientUnits="userSpaceOnUse" x1="2668.6907" y1="3176.5632" x2="2707.4675" y2="3211.0552">
				<stop  offset="0" style="stop-color:#444B8C"/>
				<stop  offset="0.9964" style="stop-color:#26264F"/>
			</linearGradient>
			<path style="fill:url(#SVGID_00000080177503260983229330000002804000775214899111_);" d="M2691.77,3202.2c0,0,24.85-2.14,26.78,3
				c1.93,5.14,2.14,18.21-13.07,15.64C2690.27,3218.27,2689.84,3206.06,2691.77,3202.2z"/>
			
				<linearGradient id="SVGID_00000136413339555411547840000003497574852996626066_" gradientUnits="userSpaceOnUse" x1="2507.9473" y1="2078.1248" x2="2625.9221" y2="2585.9307">
				<stop  offset="0" style="stop-color:#FF9085"/>
				<stop  offset="1" style="stop-color:#FB6FBB"/>
			</linearGradient>
			<path style="fill:url(#SVGID_00000136413339555411547840000003497574852996626066_);" d="M2748.54,2072.03
				c-34.42-22.4-124.43,47.78-151.68,67.13c-105.66,75.04-93,121.85-140.99,98.48c-32.45-15.8-36.85-63.43-92.31-81.34
				c-9.8-3.17-18.24-4.45-23.67-5.03c-0.07,0.04-18.31,9.74-18.39,9.77c-6.48,2.1-12.95,4.19-18.39,9.77
				c-5.33,11.07-10.22,24.56-12.68,40.28c0.52,5.59,1.62,14.85,4.14,26.03c2.08,9.25,26.44,110.53,111.13,141.72
				c15.56,5.73,28.48,7.38,35.01,8.17c27.83,3.37,53.05-0.75,96.17-15.61c73.04-25.17,128.8-48.77,178.1-106.48
				c2.35-2.75,4.25-5.45,6.14-8.35C2757.79,2200.33,2781.77,2093.64,2748.54,2072.03z"/>
			<g>
				
					<linearGradient id="SVGID_00000011019023239907085000000004743337889379933882_" gradientUnits="userSpaceOnUse" x1="2702.9299" y1="1950.6272" x2="2912.9241" y2="2214.8269">
					<stop  offset="0" style="stop-color:#FFC444"/>
					<stop  offset="0.9964" style="stop-color:#F36F56"/>
				</linearGradient>
				<path style="fill:url(#SVGID_00000011019023239907085000000004743337889379933882_);" d="M2743.25,2024.47
					c-9.75-16.48-5.41-35.31-4.43-39.38c4.1-17.03,5.62-19.62,8.79-23.22l4.47-4.73c0,0,0.28-0.21,0.57-0.41
					c3.11-2.14,14.72-5.61,17.22-5.74c8-0.4,24.29,28.3,33.62,72.54c0.76,1.58,1.51,3.18,2.25,4.79c4.63,10.03,8.6,19.9,12,29.53
					c54.09,4.57,61.6,10.92,61.84,14.59c0.51,7.72-30.31,16.63-53.49,20.03c-50.55,7.4-102.52-5.93-102.28-15.36
					c0.1-4.1,10.15-9.45,53.01-15.06c-1-7.09-2-14.18-3.01-21.27C2770.33,2039.98,2750.43,2036.61,2743.25,2024.47z"/>
				<path class="st29" d="M2733.08,1948.93c3.65,13.5,13.86,26.24,17.73,27.69c0.5,0.19,3.35,1.42,6.32,4.04
					c0.4,0.36,0.79,0.8,1.2,1.39c5.23,7.73-5.64,21.36-2.01,24.47c2.63,2.26,10.85-3.89,12.58-1.79c1.63,1.97-4.78,8.67-2.89,11.05
					c1.43,1.8,5.64-1.32,9.44,1.01c1.89,1.16,1.79,2.5,4.62,6.82c1.6,2.45,3.62,5.05,5.02,6.42c6.79,6.69,20.79,6.06,22.48,2.21
					c0.47-1.07-0.33-1.66-0.4-4.82c0,0-0.06-2.93,1-6.62c1.52-5.28,7.26-10.29,12.65-16.86c9.97-12.18,11.31-20.65,11.63-23.48
					c0.11-1.01,0.15-1.75,0.18-2.29c0.55-10.82-3.33-25.45-10.21-33.26c-11.52-13.07-26.54-1.41-44.37-12.65
					c-20.58-12.97-17.34-39.06-26.7-39.35C2741.03,1892.6,2726.34,1923.97,2733.08,1948.93z"/>
				
					<linearGradient id="SVGID_00000047769350751694300570000007730087022702125707_" gradientUnits="userSpaceOnUse" x1="2711.7842" y1="1943.5862" x2="2921.7856" y2="2207.7947">
					<stop  offset="0" style="stop-color:#FFC444"/>
					<stop  offset="0.9964" style="stop-color:#F36F56"/>
				</linearGradient>
				<path style="fill:url(#SVGID_00000047769350751694300570000007730087022702125707_);" d="M2760.32,2002.06
					c2.1-5.43,9.06-2.71,10.66,3.17c1.6,5.88-2.47,13.52-8.31,13.84C2756.83,2019.38,2757.5,2009.37,2760.32,2002.06z"/>
			</g>
			<path class="st29" d="M2760.38,1991.49l-5.02,12.04c0,0-5.09,14.54-11.64,9.04c-4.16-3.5-5.04-3.86-5.73-4.02
				c-0.06-0.01-0.84-2.89-0.89-5.43c-1.26,3.48-3.01,9.41-3.01,16.27c0,6.67,0,13.81,5.22,19.27c0.3,0.32,5.99,6.1,13.65,5.82
				c0,0,3.01-0.11,14.45-5.42c0,0-15.66-6.02-16.46-8.23c-2.18-6.01,5.46-11.6,8.43-25.9
				C2760.53,1999.43,2760.55,1994.7,2760.38,1991.49z"/>
		</g>
	</g>
</g>
</svg>
